<svg xmlns="http://www.w3.org/2000/svg" width="55" height="55" viewBox="0 0 55 55"><g><g><path fill="#ff7373" d="M0 0h55v55H0z"/></g><g><path fill="#fff" d="M26.104 20v3c0 1.103-.887 2-1.978 2h-.99v6h.99a1.99 1.99 0 0 1 1.978 2v3c0 1.103-.887 2-1.978 2h-1.452c-2.301 0-4.332-1.65-4.828-3.921a28.426 28.426 0 0 1 0-12.196c.5-2.25 2.527-3.883 4.82-3.883h1.46c1.09 0 1.978.897 1.978 2zm10.878 8c0 4.962-3.993 9-8.9 9v-2c3.817 0 6.922-3.14 6.922-7s-3.105-7-6.922-7v-2c4.907 0 8.9 4.038 8.9 9zm-8.9 5v-2c1.636 0 2.967-1.346 2.967-3s-1.331-3-2.967-3v-2c2.726 0 4.945 2.243 4.945 5s-2.219 5-4.945 5z"/></g></g></svg>